{"title":"Kwaidan (1964) - Uncut Edition","uid":11301415,"size":2845081332,"categoryP":"video","categoryS":"movies","magnet":"?xt=urn:btih:32ad900debf51cf7046be381e5b409cf0bad1d30&amp;dn=+Kwaidan+%281964%29+-+Uncut+Edition&amp;tr=udp%3A%2F%2Ftracker.openbittorrent.com%3A80&amp;tr=udp%3A%2F%2Fopen.demonii.com%3A1337&amp;tr=udp%3A%2F%2Ftracker.coppersurfer.tk%3A6969&amp;tr=udp%3A%2F%2Fexodus.desync.com%3A6969","seeders":5,"leechers":0,"uploader":"cavallone","files":1,"time":1414427168,"description":"Plot: A masterpiece of filmmaking artifice and mood-setting atmosphere, Kwaidan consists of four ghost stories adapted from the fiction of Greek-born Lafcadio Hearn (a.k.a. Yakumo Koizumi, 1850-1904), who assimilated into Japanese culture so thoroughly that his writings reveal no evidence of Western influence. So it is that these four cinematic interpretations--perhaps more accurately described as tales of spectral visitation--are sublimely Japanese in tone and texture, created entirely in a studio with frequently stunning results. There are painterly images here that remain the most beautiful and haunting in all of Japanese cinema, presented with the purity of silent film, sparsely accompanied by post-synchronized sounds and music (by Toru Takemitsu) that enhance the otherworldly effect of director Masaki Kobayashi's meticulous imagery. When viewed in a receptive frame of mind, Kwaidan can be intensely hypnotic.\nEach of the four stories find their protagonists confronted by spirits that compel them to (respectively) make amends for past mistakes, maintain vows of silence, satisfy the yearnings of the undead, or capture phantoms that remain frightfully elusive. As each tale progresses, their supernatural elements grow increasingly intense and distant from the confines of reality. With careful use of glorious color and wide-screen composition, Kwaidan exists in a netherworld that is both real and imagined, its characters never quite sure they can trust what they've seen and heard. Vastly different from the more overt shocks of Western horror, the film casts a supernatural spell that remains timelessly effective.\n\n\nRip Specs:\n\nGeneral\nUnique ID                                : 301129410876036548705695524986106437178 (0xE28B6A3A6FFC44346C5FB173BE2C5E3A)\nComplete name                            : Kwaidan.1964.DVDRip.x264-HANDJOB.mkv\nFormat                                   : Matroska\nFormat version                           : Version 2\nFile size                                : 2.65 GiB\nDuration                                 : 3h 3mn\nOverall bit rate                         : 2 071 Kbps\nWriting application                      : HandBrake 0.9.8\nWriting library                          : libmkv 0.6.5\n\nVideo\nID                                       : 1\nFormat                                   : AVC\nFormat/Info                              : Advanced Video Codec\nFormat profile                           : &lt;a class=&quot;__cf_email__&quot; href=&quot;/cdn-cgi/l/email-protection&quot; data-cfemail=&quot;430b2a242b030f706d72&quot;&gt;[email&amp;#160;protected]&lt;/a&gt;&lt;script cf-hash='f9e31' type=&quot;text/javascript&quot;&gt;\n/* &lt;![CDATA[ */!function(){try{var t=&quot;currentScript&quot;in document?document.currentScript:function(){for(var t=document.getElementsByTagName(&quot;script&quot;),e=t.length;e--;)if(t[e].getAttribute(&quot;cf-hash&quot;))return t[e]}();if(t&amp;&amp;t.previousSibling){var e,r,n,i,c=t.previousSibling,a=c.getAttribute(&quot;data-cfemail&quot;);if(a){for(e=&quot;&quot;,r=parseInt(a.substr(0,2),16),n=2;a.length-n;n+=2)i=parseInt(a.substr(n,2),16)^r,e+=String.fromCharCode(i);e=document.createTextNode(e),c.parentNode.replaceChild(e,c)}}}catch(u){}}();/* ]]&gt; */&lt;/script&gt;\nFormat settings, CABAC                   : Yes\nFormat settings, ReFrames                : 11 frames\nCodec ID                                 : V_MPEG4/ISO/AVC\nDuration                                 : 3h 3mn\nBit rate                                 : 1 838 Kbps\nWidth                                    : 710 pixels\nHeight                                   : 340 pixels\nDisplay aspect ratio                     : 2.474\nOriginal display aspect ratio            : 2.475\nFrame rate mode                          : Constant\nFrame rate                               : 23.976 fps\nColor space                              : YUV\nChroma subsampling                       : 4:2:0\nBit depth                                : 8 bits\nScan type                                : Progressive\nBits/(Pixel*Frame)                       : 0.317\nStream size                              : 2.35 GiB (89%)\nWriting library                          : x264 core 120\nEncoding settings                        : cabac=1 / ref=11 / deblock=1:-2:-2 / analyse=0x3:0x133 / me=umh / subme=11 / psy=1 / psy_rd=1.00:0.00 / mixed_ref=1 / me_range=24 / chroma_me=1 / trellis=2 / 8x8dct=1 / cqm=0 / deadzone=21,11 / fast_pskip=0 / chroma_qp_offset=-2 / threads=6 / sliced_threads=0 / nr=0 / decimate=1 / interlaced=0 / bluray_compat=0 / constrained_intra=0 / bframes=8 / b_pyramid=2 / b_adapt=2 / b_bias=0 / direct=3 / weightb=1 / open_gop=0 / weightp=2 / keyint=240 / keyint_min=24 / scenecut=40 / intra_refresh=0 / rc_lookahead=50 / rc=crf / mbtree=1 / crf=15.0 / qcomp=0.60 / qpmin=3 / qpmax=69 / qpstep=4 / ip_ratio=1.40 / aq=1:1.20\nLanguage                                 : English\nDefault                                  : Yes\nForced                                   : No\nColor primaries                          : BT.601 NTSC\nTransfer characteristics                 : BT.709\nMatrix coefficients                      : BT.601\n\nAudio\nID                                       : 2\nFormat                                   : AC-3\nFormat/Info                              : Audio Coding 3\nMode extension                           : CM (complete main)\nFormat settings, Endianness              : Big\nCodec ID                                 : A_AC3\nDuration                                 : 3h 3mn\nBit rate mode                            : Constant\nBit rate                                 : 192 Kbps\nChannel(s)                               : 2 channels\nChannel positions                        : Front: L R\nSampling rate                            : 48.0 KHz\nBit depth                                : 16 bits\nCompression mode                         : Lossy\nStream size                              : 252 MiB (9%)\nLanguage                                 : English\nDefault                                  : Yes\nForced                                   : No\n\nText\nID                                       : 3\nFormat                                   : UTF-8\nCodec ID                                 : S_TEXT/UTF8\nCodec ID/Info                            : UTF-8 Plain Text\nLanguage                                 : English\nDefault                                  : Yes\nForced                                   : No\n\nMenu\n00:00:00.000                             : Chapter 1\n00:03:53.066                             : Chapter 2\n00:07:59.812                             : Chapter 3\n00:09:33.406                             : Chapter 4\n00:16:47.172                             : Chapter 5\n00:22:55.665                             : Chapter 6\n00:34:04.333                             : Chapter 7\n00:39:55.518                             : Chapter 8\n00:47:43.193                             : Chapter 9\n00:53:13.732                             : Chapter 10\n00:55:27.365                             : Chapter 11\n01:03:21.297                             : Chapter 12\n01:10:09.705                             : Chapter 13\n01:14:44.980                             : Chapter 14\n01:22:51.383                             : Chapter 15\n01:35:10.454                             : Chapter 16\n01:39:59.702                             : Chapter 17\n01:47:03.500                             : Chapter 18\n01:49:53.545                             : Chapter 19\n01:59:32.039                             : Chapter 20\n02:04:22.746                             : Chapter 21\n02:19:48.588                             : Chapter 22\n02:25:34.308                             : Chapter 23\n02:32:51.162                             : Chapter 24\n02:37:19.763                             : Chapter 25\n02:42:51.011                             : Chapter 26\n02:50:53.993                             : Chapter 27\n02:58:52.471                             : Chapter 28","torrent":{"xt":"urn:btih:32ad900debf51cf7046be381e5b409cf0bad1d30","amp;dn":"+Kwaidan+%281964%29+-+Uncut+Edition","amp;tr":["udp%3A%2F%2Ftracker.openbittorrent.com%3A80","udp%3A%2F%2Fopen.demonii.com%3A1337","udp%3A%2F%2Ftracker.coppersurfer.tk%3A6969","udp%3A%2F%2Fexodus.desync.com%3A6969"],"infoHash":"32ad900debf51cf7046be381e5b409cf0bad1d30","infoHashBuffer":{"type":"Buffer","data":[50,173,144,13,235,245,28,247,4,107,227,129,229,180,9,207,11,173,29,48]},"announce":[],"urlList":[]}}